<mxfile host="Electron" modified="2023-11-29T06:57:54.643Z" agent="Mozilla/5.0 (Windows NT 10.0; Win64; x64) AppleWebKit/537.36 (KHTML, like Gecko) draw.io/21.6.8 Chrome/114.0.5735.289 Electron/25.5.0 Safari/537.36" etag="_7N4gXPdWoZqys-eu4XO" version="21.6.8" type="device">
  <diagram name="Page-1" id="ougDGwk0ZbNMD_rdWg_G">
    <mxGraphModel dx="989" dy="1036" grid="0" gridSize="10" guides="1" tooltips="1" connect="1" arrows="1" fold="1" page="0" pageScale="1" pageWidth="827" pageHeight="1169" math="0" shadow="0">
      <root>
        <mxCell id="0" />
        <mxCell id="1" parent="0" />
        <mxCell id="c23M24nwA0wwD9snN4Oy-1" value="&lt;div style=&quot;&quot;&gt;&lt;span style=&quot;white-space: pre;&quot;&gt;Passing of possible titles&lt;/span&gt;&lt;/div&gt;" style="rounded=0;whiteSpace=wrap;html=1;strokeColor=#D6D6D6;fillColor=#f7c382;align=center;spacingLeft=10;fontSize=14;fontFamily=Times New Roman;" vertex="1" parent="1">
          <mxGeometry x="88" y="-87" width="319" height="30" as="geometry" />
        </mxCell>
        <mxCell id="c23M24nwA0wwD9snN4Oy-2" value="&lt;span style=&quot;font-size: 14px;&quot;&gt;Research for thesis titles&lt;/span&gt;" style="rounded=0;whiteSpace=wrap;html=1;strokeColor=#D6D6D6;fillColor=#FBE1C0;align=left;spacingLeft=10;fontSize=14;fontFamily=Times New Roman;" vertex="1" parent="1">
          <mxGeometry x="128" y="-57" width="280" height="30" as="geometry" />
        </mxCell>
        <mxCell id="c23M24nwA0wwD9snN4Oy-3" value="Printing" style="rounded=0;whiteSpace=wrap;html=1;strokeColor=#D6D6D6;fillColor=#FFFFFF;align=left;spacingLeft=10;fontSize=14;fontFamily=Times New Roman;" vertex="1" parent="1">
          <mxGeometry x="128" y="-27" width="280" height="30" as="geometry" />
        </mxCell>
        <mxCell id="c23M24nwA0wwD9snN4Oy-20" value="1" style="rounded=0;whiteSpace=wrap;html=1;strokeColor=#D6D6D6;fillColor=#FBE1C0;align=right;spacingLeft=10;spacingRight=8;fontSize=14;fontFamily=Times New Roman;" vertex="1" parent="1">
          <mxGeometry x="88" y="-57" width="40" height="30" as="geometry" />
        </mxCell>
        <mxCell id="c23M24nwA0wwD9snN4Oy-21" value="1.1" style="rounded=0;whiteSpace=wrap;html=1;strokeColor=#D6D6D6;fillColor=#FFFFFF;align=right;spacingLeft=10;spacingRight=8;fontSize=14;fontFamily=Times New Roman;" vertex="1" parent="1">
          <mxGeometry x="88" y="-27" width="40" height="30" as="geometry" />
        </mxCell>
        <mxCell id="c23M24nwA0wwD9snN4Oy-22" value="1.2" style="rounded=0;whiteSpace=wrap;html=1;strokeColor=#D6D6D6;fillColor=#FFFFFF;align=right;spacingLeft=10;spacingRight=8;fontSize=14;fontFamily=Times New Roman;" vertex="1" parent="1">
          <mxGeometry x="88" y="3" width="40" height="30" as="geometry" />
        </mxCell>
        <mxCell id="c23M24nwA0wwD9snN4Oy-38" value="11 days" style="rounded=0;whiteSpace=wrap;html=1;strokeColor=#D6D6D6;fillColor=#f7c382;align=center;spacingLeft=10;spacingRight=8;fontSize=14;fontFamily=Times New Roman;" vertex="1" parent="1">
          <mxGeometry x="408" y="-87" width="80" height="30" as="geometry" />
        </mxCell>
        <mxCell id="c23M24nwA0wwD9snN4Oy-39" value="7 days" style="rounded=0;whiteSpace=wrap;html=1;strokeColor=#D6D6D6;fillColor=#FBE1C0;align=center;spacingLeft=10;spacingRight=8;fontSize=14;fontFamily=Times New Roman;" vertex="1" parent="1">
          <mxGeometry x="408" y="-57" width="80" height="30" as="geometry" />
        </mxCell>
        <mxCell id="c23M24nwA0wwD9snN4Oy-40" value="1 day" style="rounded=0;whiteSpace=wrap;html=1;strokeColor=#D6D6D6;fillColor=#FFFFFF;align=center;spacingLeft=10;spacingRight=8;fontSize=14;fontFamily=Times New Roman;" vertex="1" parent="1">
          <mxGeometry x="408" y="-27" width="80" height="30" as="geometry" />
        </mxCell>
        <mxCell id="c23M24nwA0wwD9snN4Oy-41" value="02-12-23" style="rounded=0;whiteSpace=wrap;html=1;strokeColor=#D6D6D6;fillColor=#f7c382;align=center;spacingLeft=10;spacingRight=8;fontSize=14;fontFamily=Times New Roman;" vertex="1" parent="1">
          <mxGeometry x="488" y="-87" width="80" height="30" as="geometry" />
        </mxCell>
        <mxCell id="c23M24nwA0wwD9snN4Oy-42" value="02-12-23" style="rounded=0;whiteSpace=wrap;html=1;strokeColor=#D6D6D6;fillColor=#FBE1C0;align=center;spacingLeft=10;spacingRight=8;fontSize=14;fontFamily=Times New Roman;" vertex="1" parent="1">
          <mxGeometry x="488" y="-57" width="80" height="30" as="geometry" />
        </mxCell>
        <mxCell id="c23M24nwA0wwD9snN4Oy-43" value="02-19-23" style="rounded=0;whiteSpace=wrap;html=1;strokeColor=#D6D6D6;fillColor=#FFFFFF;align=center;spacingLeft=10;spacingRight=8;fontSize=14;fontFamily=Times New Roman;" vertex="1" parent="1">
          <mxGeometry x="488" y="-27" width="80" height="30" as="geometry" />
        </mxCell>
        <mxCell id="c23M24nwA0wwD9snN4Oy-44" value="02-23-23" style="rounded=0;whiteSpace=wrap;html=1;strokeColor=#D6D6D6;fillColor=#f7c382;align=center;spacingLeft=10;spacingRight=8;fontSize=14;fontFamily=Times New Roman;" vertex="1" parent="1">
          <mxGeometry x="568" y="-87" width="80" height="30" as="geometry" />
        </mxCell>
        <mxCell id="c23M24nwA0wwD9snN4Oy-45" value="02-19-23" style="rounded=0;whiteSpace=wrap;html=1;strokeColor=#D6D6D6;fillColor=#FBE1C0;align=center;spacingLeft=10;spacingRight=8;fontSize=14;fontFamily=Times New Roman;" vertex="1" parent="1">
          <mxGeometry x="568" y="-57" width="80" height="30" as="geometry" />
        </mxCell>
        <mxCell id="c23M24nwA0wwD9snN4Oy-46" value="02-20-23" style="rounded=0;whiteSpace=wrap;html=1;strokeColor=#D6D6D6;fillColor=#FFFFFF;align=center;spacingLeft=10;spacingRight=8;fontSize=14;fontFamily=Times New Roman;" vertex="1" parent="1">
          <mxGeometry x="568" y="-27" width="80" height="30" as="geometry" />
        </mxCell>
        <mxCell id="c23M24nwA0wwD9snN4Oy-47" value="Conduct a potential&amp;nbsp;literature review&amp;nbsp;" style="rounded=0;whiteSpace=wrap;html=1;strokeColor=#D6D6D6;fillColor=#FFFFFF;align=left;spacingLeft=10;fontSize=14;fontFamily=Times New Roman;" vertex="1" parent="1">
          <mxGeometry x="128" y="3" width="280" height="30" as="geometry" />
        </mxCell>
        <mxCell id="c23M24nwA0wwD9snN4Oy-51" value="#" style="rounded=0;whiteSpace=wrap;html=1;strokeColor=none;fillColor=#D6D6D6;align=center;fontSize=14;fontFamily=Times New Roman;" vertex="1" parent="1">
          <mxGeometry x="88" y="-127" width="40" height="40" as="geometry" />
        </mxCell>
        <mxCell id="c23M24nwA0wwD9snN4Oy-52" value="&lt;span style=&quot;font-size: 14px;&quot;&gt;Task Name&lt;/span&gt;" style="rounded=0;whiteSpace=wrap;html=1;strokeColor=none;fillColor=#D6D6D6;align=center;fontSize=14;fontFamily=Times New Roman;fontStyle=0" vertex="1" parent="1">
          <mxGeometry x="128" y="-127" width="280" height="40" as="geometry" />
        </mxCell>
        <mxCell id="c23M24nwA0wwD9snN4Oy-53" value="Duration" style="rounded=0;whiteSpace=wrap;html=1;strokeColor=none;fillColor=#D6D6D6;align=center;fontSize=14;fontFamily=Times New Roman;fontStyle=0" vertex="1" parent="1">
          <mxGeometry x="408" y="-127" width="80" height="40" as="geometry" />
        </mxCell>
        <mxCell id="c23M24nwA0wwD9snN4Oy-54" value="Start" style="rounded=0;whiteSpace=wrap;html=1;strokeColor=none;fillColor=#D6D6D6;align=center;fontSize=14;fontFamily=Times New Roman;fontStyle=0" vertex="1" parent="1">
          <mxGeometry x="488" y="-127" width="80" height="40" as="geometry" />
        </mxCell>
        <mxCell id="c23M24nwA0wwD9snN4Oy-55" value="End" style="rounded=0;whiteSpace=wrap;html=1;strokeColor=none;fillColor=#D6D6D6;align=center;fontSize=14;fontFamily=Times New Roman;fontStyle=0" vertex="1" parent="1">
          <mxGeometry x="568" y="-127" width="80" height="40" as="geometry" />
        </mxCell>
        <mxCell id="c23M24nwA0wwD9snN4Oy-56" value="02-20-23" style="rounded=0;whiteSpace=wrap;html=1;strokeColor=#D6D6D6;fillColor=#FFFFFF;align=center;spacingLeft=10;spacingRight=8;fontSize=14;fontFamily=Times New Roman;" vertex="1" parent="1">
          <mxGeometry x="488" y="3" width="80" height="30" as="geometry" />
        </mxCell>
        <mxCell id="c23M24nwA0wwD9snN4Oy-57" value="02-21-23" style="rounded=0;whiteSpace=wrap;html=1;strokeColor=#D6D6D6;fillColor=#FFFFFF;align=center;spacingLeft=10;spacingRight=8;fontSize=14;fontFamily=Times New Roman;" vertex="1" parent="1">
          <mxGeometry x="568" y="3" width="80" height="30" as="geometry" />
        </mxCell>
        <mxCell id="c23M24nwA0wwD9snN4Oy-58" value="1 day" style="rounded=0;whiteSpace=wrap;html=1;strokeColor=#D6D6D6;fillColor=#FFFFFF;align=center;spacingLeft=10;spacingRight=8;fontSize=14;fontFamily=Times New Roman;" vertex="1" parent="1">
          <mxGeometry x="408" y="3" width="80" height="30" as="geometry" />
        </mxCell>
        <mxCell id="c23M24nwA0wwD9snN4Oy-225" value="1.3" style="rounded=0;whiteSpace=wrap;html=1;strokeColor=#D6D6D6;fillColor=#FFFFFF;align=right;spacingLeft=10;spacingRight=8;fontSize=14;fontFamily=Times New Roman;" vertex="1" parent="1">
          <mxGeometry x="88" y="33" width="40" height="30" as="geometry" />
        </mxCell>
        <mxCell id="c23M24nwA0wwD9snN4Oy-226" value="Identify potential research objectives&amp;nbsp;" style="rounded=0;whiteSpace=wrap;html=1;strokeColor=#D6D6D6;fillColor=#FFFFFF;align=left;spacingLeft=10;fontSize=14;fontFamily=Times New Roman;" vertex="1" parent="1">
          <mxGeometry x="128" y="33" width="280" height="30" as="geometry" />
        </mxCell>
        <mxCell id="c23M24nwA0wwD9snN4Oy-227" value="02-21-23" style="rounded=0;whiteSpace=wrap;html=1;strokeColor=#D6D6D6;fillColor=#FFFFFF;align=center;spacingLeft=10;spacingRight=8;fontSize=14;fontFamily=Times New Roman;" vertex="1" parent="1">
          <mxGeometry x="488" y="33" width="80" height="30" as="geometry" />
        </mxCell>
        <mxCell id="c23M24nwA0wwD9snN4Oy-228" value="02-22-23" style="rounded=0;whiteSpace=wrap;html=1;strokeColor=#D6D6D6;fillColor=#FFFFFF;align=center;spacingLeft=10;spacingRight=8;fontSize=14;fontFamily=Times New Roman;" vertex="1" parent="1">
          <mxGeometry x="568" y="33" width="80" height="30" as="geometry" />
        </mxCell>
        <mxCell id="c23M24nwA0wwD9snN4Oy-229" value="1 day" style="rounded=0;whiteSpace=wrap;html=1;strokeColor=#D6D6D6;fillColor=#FFFFFF;align=center;spacingLeft=10;spacingRight=8;fontSize=14;fontFamily=Times New Roman;" vertex="1" parent="1">
          <mxGeometry x="408" y="33" width="80" height="30" as="geometry" />
        </mxCell>
        <mxCell id="c23M24nwA0wwD9snN4Oy-230" value="1.4" style="rounded=0;whiteSpace=wrap;html=1;strokeColor=#D6D6D6;fillColor=#FFFFFF;align=right;spacingLeft=10;spacingRight=8;fontSize=14;fontFamily=Times New Roman;" vertex="1" parent="1">
          <mxGeometry x="88" y="63" width="40" height="30" as="geometry" />
        </mxCell>
        <mxCell id="c23M24nwA0wwD9snN4Oy-231" value="Passing the possible titles&amp;nbsp;" style="rounded=0;whiteSpace=wrap;html=1;strokeColor=#D6D6D6;fillColor=#FFFFFF;align=left;spacingLeft=10;fontSize=14;fontFamily=Times New Roman;" vertex="1" parent="1">
          <mxGeometry x="128" y="63" width="280" height="30" as="geometry" />
        </mxCell>
        <mxCell id="c23M24nwA0wwD9snN4Oy-232" value="02-22-23" style="rounded=0;whiteSpace=wrap;html=1;strokeColor=#D6D6D6;fillColor=#FFFFFF;align=center;spacingLeft=10;spacingRight=8;fontSize=14;fontFamily=Times New Roman;" vertex="1" parent="1">
          <mxGeometry x="488" y="63" width="80" height="30" as="geometry" />
        </mxCell>
        <mxCell id="c23M24nwA0wwD9snN4Oy-233" value="02-23-23" style="rounded=0;whiteSpace=wrap;html=1;strokeColor=#D6D6D6;fillColor=#FFFFFF;align=center;spacingLeft=10;spacingRight=8;fontSize=14;fontFamily=Times New Roman;" vertex="1" parent="1">
          <mxGeometry x="568" y="63" width="80" height="30" as="geometry" />
        </mxCell>
        <mxCell id="c23M24nwA0wwD9snN4Oy-234" value="1 day" style="rounded=0;whiteSpace=wrap;html=1;strokeColor=#D6D6D6;fillColor=#FFFFFF;align=center;spacingLeft=10;spacingRight=8;fontSize=14;fontFamily=Times New Roman;" vertex="1" parent="1">
          <mxGeometry x="408" y="63" width="80" height="30" as="geometry" />
        </mxCell>
      </root>
    </mxGraphModel>
  </diagram>
</mxfile>
